<svg xmlns="http://www.w3.org/2000/svg" version="1.1" xmlns:xlink="http://www.w3.org/1999/xlink" xmlns:svgjs="http://svgjs.dev/svgjs" width="1500" height="1500" viewBox="0 0 1500 1500"><rect width="1500" height="1500" fill="#ffffff"></rect><g transform="matrix(0.6666666666666666,0,0,0.6666666666666666,249.39393939393938,438.5856950067477)"><svg viewBox="0 0 396 247" data-background-color="#ffffff" preserveAspectRatio="xMidYMid meet" height="935" width="1500" xmlns="http://www.w3.org/2000/svg" xmlns:xlink="http://www.w3.org/1999/xlink"><g id="tight-bounds" transform="matrix(1,0,0,1,0.2400000000000091,-0.09999999999999432)"><svg viewBox="0 0 395.52 247.2" height="247.2" width="395.52"><g><svg></svg></g><g><svg viewBox="0 0 395.52 247.2" height="247.2" width="395.52"><g transform="matrix(1,0,0,1,75.54432,91.64606692170152)"><svg viewBox="0 0 244.43135999999998 63.90786615659695" height="63.90786615659695" width="244.43135999999998"><g><svg viewBox="0 0 244.43135999999998 63.90786615659695" height="63.90786615659695" width="244.43135999999998"><g><svg viewBox="0 0 244.43135999999998 63.90786615659695" height="63.90786615659695" width="244.43135999999998"><g><svg viewBox="0 0 244.43135999999998 63.90786615659695" height="63.90786615659695" width="244.43135999999998"><g id="textblocktransform"><svg viewBox="0 0 244.43135999999998 63.90786615659695" height="63.90786615659695" width="244.43135999999998" id="textblock"><g><svg viewBox="0 0 244.43135999999998 43.59110043176271" height="43.59110043176271" width="244.43135999999998"><g transform="matrix(1,0,0,1,0,0)"><svg width="244.43135999999998" viewBox="4.25 -36.4 266.32 47.5" height="43.59110043176271" data-palette-color="#003231"><path d="M8.1 0L4.25 0 4.25-34.6 11.45-34.6 24.7-3.4 25.75-3.4 25.75-34.6 29.55-34.6 29.55 0 22.5 0 9.05-31.2 8.1-31.2 8.1 0ZM55.05-17.45L55.05-17.45 55.05-4.65Q55.2-2.8 57.95-2.45L57.95-2.45 57.8 0.5Q53.85 0.5 51.85-1.5L51.85-1.5Q47.35 0.5 42.85 0.5L42.85 0.5Q39.4 0.5 37.6-1.45 35.8-3.4 35.8-7.05 35.8-10.7 37.65-12.43 39.5-14.15 43.45-14.55L43.45-14.55 51.3-15.3 51.3-17.45Q51.3-20 50.2-21.1 49.1-22.2 47.2-22.2L47.2-22.2Q43.2-22.2 38.9-21.7L38.9-21.7 37.35-21.55 37.2-24.4Q42.7-25.5 46.95-25.5 51.2-25.5 53.12-23.55 55.05-21.6 55.05-17.45ZM39.65-7.25L39.65-7.25Q39.65-2.65 43.45-2.65L43.45-2.65Q46.85-2.65 50.15-3.8L50.15-3.8 51.3-4.2 51.3-12.45 43.9-11.75Q41.65-11.55 40.65-10.45 39.65-9.35 39.65-7.25ZM75.4-25L75.4-21.75 67.45-21.75 67.45-9.8Q67.45-5.5 68.07-4.15 68.7-2.8 71.05-2.8L71.05-2.8 75.5-3.1 75.75 0Q72.4 0.55 70.65 0.55L70.65 0.55Q66.75 0.55 65.25-1.35 63.75-3.25 63.75-8.6L63.75-8.6 63.75-21.75 60.2-21.75 60.2-25 63.75-25 63.75-32.65 67.45-32.65 67.45-25 75.4-25ZM92.94-25L92.94-21.75 84.99-21.75 84.99-9.8Q84.99-5.5 85.62-4.15 86.24-2.8 88.59-2.8L88.59-2.8 93.04-3.1 93.29 0Q89.94 0.55 88.19 0.55L88.19 0.55Q84.29 0.55 82.79-1.35 81.29-3.25 81.29-8.6L81.29-8.6 81.29-21.75 77.74-21.75 77.74-25 81.29-25 81.29-32.65 84.99-32.65 84.99-25 92.94-25ZM102.29 0L95.19-25 98.94-25 105.19-3.25 106.84-3.25 113.14-25 116.89-25 106.49 11.1 102.74 11.1 105.99 0 102.29 0ZM144.74-21.75L137.49-21.75 137.49 0 133.74 0 133.74-21.75 130.59-21.75 130.59-25 133.74-25 133.74-27.25Q133.74-32.55 135.24-34.48 136.74-36.4 140.49-36.4L140.49-36.4 145.54-36.05 145.49-32.95Q142.69-33.05 140.86-33.05 139.04-33.05 138.26-31.85 137.49-30.65 137.49-27.2L137.49-27.2 137.49-25 144.74-25 144.74-21.75ZM152.98 0L149.23 0 149.23-25 152.98-25 152.98 0ZM152.98-30.65L149.23-30.65 149.23-35 152.98-35 152.98-30.65ZM173.13-25L173.13-21.75 165.18-21.75 165.18-9.8Q165.18-5.5 165.81-4.15 166.43-2.8 168.78-2.8L168.78-2.8 173.23-3.1 173.48 0Q170.13 0.55 168.38 0.55L168.38 0.55Q164.48 0.55 162.98-1.35 161.48-3.25 161.48-8.6L161.48-8.6 161.48-21.75 157.93-21.75 157.93-25 161.48-25 161.48-32.65 165.18-32.65 165.18-25 173.13-25ZM181.48-20.3L181.48 0 177.73 0 177.73-25 181.43-25 181.43-23.25Q185.48-25.5 189.18-25.5L189.18-25.5Q194.18-25.5 195.9-22.8 197.63-20.1 197.63-13.2L197.63-13.2 197.63 0 193.93 0 193.93-13.1Q193.93-18.3 192.9-20.23 191.88-22.15 188.53-22.15L188.53-22.15Q186.93-22.15 185.15-21.68 183.38-21.2 182.43-20.75L182.43-20.75 181.48-20.3ZM221.58-3.1L221.58-3.1 223.03-3.25 223.13-0.3Q217.43 0.5 213.38 0.5L213.38 0.5Q207.98 0.5 205.73-2.63 203.48-5.75 203.48-12.35L203.48-12.35Q203.48-25.5 213.93-25.5L213.93-25.5Q218.98-25.5 221.48-22.68 223.98-19.85 223.98-13.8L223.98-13.8 223.78-10.95 207.28-10.95Q207.28-6.8 208.78-4.8 210.28-2.8 214-2.8 217.73-2.8 221.58-3.1ZM207.23-13.95L220.23-13.95Q220.23-18.55 218.75-20.45 217.28-22.35 213.95-22.35 210.63-22.35 208.95-20.35 207.28-18.35 207.23-13.95L207.23-13.95ZM237.67-22.15L237.67-22.15Q232.22-22.15 232.22-18.35L232.22-18.35Q232.22-16.6 233.47-15.88 234.72-15.15 239.17-14.38 243.62-13.6 245.47-12.2 247.32-10.8 247.32-6.95 247.32-3.1 244.85-1.3 242.37 0.5 237.62 0.5L237.62 0.5Q234.52 0.5 230.32-0.2L230.32-0.2 228.82-0.45 229.02-3.7Q234.72-2.85 237.62-2.85 240.52-2.85 242.05-3.78 243.57-4.7 243.57-6.88 243.57-9.05 242.27-9.83 240.97-10.6 236.57-11.3 232.17-12 230.32-13.35 228.47-14.7 228.47-18.35 228.47-22 231.05-23.75 233.62-25.5 237.47-25.5L237.47-25.5Q240.52-25.5 245.12-24.8L245.12-24.8 246.52-24.55 246.42-21.35Q240.87-22.15 237.67-22.15ZM260.92-22.15L260.92-22.15Q255.47-22.15 255.47-18.35L255.47-18.35Q255.47-16.6 256.72-15.88 257.97-15.15 262.42-14.38 266.87-13.6 268.72-12.2 270.57-10.8 270.57-6.95 270.57-3.1 268.1-1.3 265.62 0.5 260.87 0.5L260.87 0.5Q257.77 0.5 253.57-0.2L253.57-0.2 252.07-0.45 252.27-3.7Q257.97-2.85 260.87-2.85 263.77-2.85 265.3-3.78 266.82-4.7 266.82-6.88 266.82-9.05 265.52-9.83 264.22-10.6 259.82-11.3 255.42-12 253.57-13.35 251.72-14.7 251.72-18.35 251.72-22 254.3-23.75 256.87-25.5 260.72-25.5L260.72-25.5Q263.77-25.5 268.37-24.8L268.37-24.8 269.77-24.55 269.67-21.35Q264.12-22.15 260.92-22.15Z" opacity="1" transform="matrix(1,0,0,1,0,0)" fill="#000000" class="wordmark-text-0" data-fill-palette-color="primary" id="text-0"></path></svg></g></svg></g><g transform="matrix(1,0,0,1,0,53.88191305729153)"><svg viewBox="0 0 244.43135999999998 10.025953099305426" height="10.025953099305426" width="244.43135999999998"><g transform="matrix(1,0,0,1,0,0)"><svg width="244.43135999999998" viewBox="4.91 -36.69 906.5 37.18" height="10.025953099305426" data-palette-color="#003231"><path d="M9.06-15.26L9.06 0 4.91 0 4.91-35.69 24.8-35.69 24.8-32.01 9.06-32.01 9.06-18.95 23.85-18.95 23.85-15.26 9.06-15.26ZM159.35-26.76L159.35 0 155.3 0 155.3-26.76 159.35-26.76ZM154.95-34.01L154.95-34.01Q154.95-35.4 155.64-36.05 156.32-36.69 157.35-36.69L157.35-36.69Q158.32-36.69 159.03-36.04 159.74-35.38 159.74-34.01L159.74-34.01Q159.74-32.64 159.03-31.97 158.32-31.3 157.35-31.3L157.35-31.3Q156.32-31.3 155.64-31.97 154.95-32.64 154.95-34.01ZM301.78-2.86L301.78-2.86Q302.85-2.86 303.85-3.02 304.85-3.17 305.44-3.34L305.44-3.34 305.44-0.24Q304.78 0.07 303.5 0.28 302.22 0.49 301.19 0.49L301.19 0.49Q293.43 0.49 293.43-7.69L293.43-7.69 293.43-23.61 289.6-23.61 289.6-25.56 293.43-27.25 295.14-32.96 297.48-32.96 297.48-26.76 305.25-26.76 305.25-23.61 297.48-23.61 297.48-7.86Q297.48-5.44 298.63-4.15 299.78-2.86 301.78-2.86ZM458.34 0L454.29 0 454.29-17.31Q454.29-20.58 452.8-22.19 451.31-23.8 448.14-23.8L448.14-23.8Q443.94-23.8 441.99-21.53 440.03-19.26 440.03-14.04L440.03-14.04 440.03 0 435.98 0 435.98-26.76 439.28-26.76 439.94-23.1 440.13-23.1Q441.38-25.07 443.62-26.16 445.87-27.25 448.63-27.25L448.63-27.25Q453.46-27.25 455.9-24.91 458.34-22.58 458.34-17.46L458.34-17.46 458.34 0ZM603.17 0.49L603.17 0.49Q597.23 0.49 593.8-3.13 590.37-6.74 590.37-13.16L590.37-13.16Q590.37-19.63 593.56-23.44 596.75-27.25 602.12-27.25L602.12-27.25Q607.15-27.25 610.08-23.94 613.01-20.63 613.01-15.21L613.01-15.21 613.01-12.65 594.57-12.65Q594.69-7.93 596.95-5.49 599.21-3.05 603.31-3.05L603.31-3.05Q607.63-3.05 611.86-4.86L611.86-4.86 611.86-1.25Q609.71-0.32 607.79 0.09 605.88 0.49 603.17 0.49ZM602.07-23.85L602.07-23.85Q598.84-23.85 596.93-21.75 595.01-19.65 594.67-15.94L594.67-15.94 608.66-15.94Q608.66-19.78 606.95-21.81 605.24-23.85 602.07-23.85ZM762.37-7.3L762.37-7.3Q762.37-3.56 759.59-1.54 756.8 0.49 751.77 0.49L751.77 0.49Q746.45 0.49 743.47-1.2L743.47-1.2 743.47-4.96Q745.4-3.98 747.61-3.42 749.82-2.86 751.87-2.86L751.87-2.86Q755.04-2.86 756.75-3.87 758.46-4.88 758.46-6.96L758.46-6.96Q758.46-8.52 757.11-9.63 755.75-10.74 751.82-12.26L751.82-12.26Q748.09-13.65 746.51-14.69 744.94-15.72 744.17-17.04 743.4-18.36 743.4-20.19L743.4-20.19Q743.4-23.46 746.06-25.35 748.72-27.25 753.36-27.25L753.36-27.25Q757.68-27.25 761.81-25.49L761.81-25.49 760.37-22.19Q756.34-23.85 753.07-23.85L753.07-23.85Q750.19-23.85 748.72-22.95 747.26-22.05 747.26-20.46L747.26-20.46Q747.26-19.38 747.81-18.63 748.35-17.87 749.58-17.19 750.8-16.5 754.26-15.21L754.26-15.21Q759.02-13.48 760.7-11.72 762.37-9.96 762.37-7.3ZM911.41-7.3L911.41-7.3Q911.41-3.56 908.63-1.54 905.85 0.49 900.82 0.49L900.82 0.49Q895.5 0.49 892.52-1.2L892.52-1.2 892.52-4.96Q894.45-3.98 896.66-3.42 898.87-2.86 900.92-2.86L900.92-2.86Q904.09-2.86 905.8-3.87 907.51-4.88 907.51-6.96L907.51-6.96Q907.51-8.52 906.15-9.63 904.8-10.74 900.87-12.26L900.87-12.26Q897.13-13.65 895.56-14.69 893.98-15.72 893.21-17.04 892.44-18.36 892.44-20.19L892.44-20.19Q892.44-23.46 895.11-25.35 897.77-27.25 902.41-27.25L902.41-27.25Q906.73-27.25 910.85-25.49L910.85-25.49 909.41-22.19Q905.38-23.85 902.11-23.85L902.11-23.85Q899.23-23.85 897.77-22.95 896.3-22.05 896.3-20.46L896.3-20.46Q896.3-19.38 896.85-18.63 897.4-17.87 898.62-17.19 899.84-16.5 903.31-15.21L903.31-15.21Q908.07-13.48 909.74-11.72 911.41-9.96 911.41-7.3Z" opacity="1" transform="matrix(1,0,0,1,0,0)" fill="#000000" class="slogan-text-1" data-fill-palette-color="secondary" id="text-1"></path></svg></g></svg></g></svg></g></svg></g></svg></g></svg></g></svg></g><path d="M203.553 85.646L203.553 23.964 4.281 23.964 4.281 223.236 203.553 223.236 203.553 161.554 199.622 161.554 199.622 219.305 8.212 219.305 8.212 27.895 199.622 27.895 199.622 85.646Z" fill="#000000" stroke="transparent" data-fill-palette-color="tertiary"></path></svg></g><defs></defs></svg><rect width="395.52" height="247.2" fill="none" stroke="none" visibility="hidden"></rect></g></svg></g></svg>